<?xml version="1.0" standalone="no"?>
<!DOCTYPE svg PUBLIC "-//W3C//DTD SVG 20010904//EN"
 "http://www.w3.org/TR/2001/REC-SVG-20010904/DTD/svg10.dtd">
<svg version="1.0" xmlns="http://www.w3.org/2000/svg"
 viewBox="0 0 2600.000000 2600.000000"
 preserveAspectRatio="xMidYMid meet">
<metadata>
Created by potrace 1.15, written by Peter Selinger 2001-2017
</metadata>
<g transform="translate(0.000000,2600.000000) scale(0.100000,-0.100000)"
fill="#000000" stroke="none">
<path d="M6155 21955 c-132 -29 -240 -90 -331 -187 -144 -152 -152 -185 -268
-1088 -270 -2097 -467 -4494 -551 -6695 -36 -952 -40 -1219 -40 -2490 0 -1282
4 -1540 40 -2325 87 -1904 292 -3397 586 -4285 79 -239 138 -365 206 -447 89
-107 218 -185 352 -214 56 -12 982 -14 6124 -14 5503 0 6065 1 6130 16 177 39
341 167 424 329 146 287 304 879 422 1580 189 1124 293 2449 332 4225 13 581
7 2227 -10 2795 -61 2009 -171 3717 -366 5660 -116 1154 -298 2593 -344 2728
-65 188 -220 336 -421 404 -52 17 -128 18 -1525 21 -1313 2 -1478 1 -1549 -13
-199 -40 -361 -167 -448 -351 -60 -129 -58 -37 -58 -1936 l0 -1738 -470 0
-470 0 0 678 c0 646 -1 683 -20 757 -27 106 -80 197 -164 281 -84 84 -175 137
-281 164 -76 19 -111 20 -1180 20 -1065 0 -1104 -1 -1179 -20 -130 -33 -242
-105 -330 -210 -47 -57 -111 -188 -125 -258 -7 -35 -11 -281 -11 -732 l0 -680
-470 0 -470 0 -2 1763 -3 1762 -27 80 c-65 189 -214 339 -403 403 l-80 27
-1480 2 c-1200 1 -1491 -1 -1540 -12z m2275 -2952 c0 -995 5 -1738 10 -1780
30 -232 189 -431 411 -514 l64 -24 1205 -3 c859 -2 1222 0 1265 8 105 20 217
82 304 168 83 82 125 148 162 252 l24 65 3 703 3 702 394 0 395 0 0 -678 c0
-643 1 -683 20 -756 45 -175 156 -314 321 -401 129 -68 67 -65 1383 -65 1308
0 1241 -3 1371 62 126 62 224 160 284 285 64 131 61 18 61 1936 l0 1747 805 0
805 0 5 -22 c3 -13 27 -205 55 -428 471 -3826 656 -7907 505 -11105 -70 -1461
-215 -2682 -419 -3510 l-42 -170 -5550 -3 -5550 -2 -47 192 c-243 1008 -385
2398 -449 4383 -16 508 -16 2341 0 2925 57 2022 166 3746 363 5705 65 653 219
1979 234 2023 3 9 173 12 805 12 l800 0 0 -1707z"/>
<path d="M8758 16246 c-26 -7 -55 -19 -65 -26 -46 -35 -76 -68 -94 -102 -60
-117 -236 -1142 -323 -1888 -191 -1623 -222 -3215 -95 -4890 72 -951 198
-1970 345 -2780 50 -278 57 -302 92 -350 35 -47 48 -57 110 -87 124 -59 284 2
343 131 25 56 24 125 -6 286 -68 362 -139 818 -200 1289 l-35 263 0 3160 0
3159 30 217 c59 421 128 826 195 1156 42 201 43 253 11 321 -53 116 -185 176
-308 141z"/>
<path d="M15825 16251 c-50 -13 -111 -48 -139 -82 -78 -93 -80 -133 -17 -444
59 -295 126 -691 176 -1042 l35 -253 -2 -3217 -3 -3218 -38 -265 c-62 -439
-126 -841 -173 -1100 -49 -264 -51 -318 -16 -386 76 -147 265 -189 398 -88 77
59 91 107 173 589 194 1148 314 2311 373 3605 16 358 16 1582 0 1930 -45 968
-113 1708 -233 2540 -77 535 -203 1210 -240 1287 -52 108 -181 171 -294 144z"/>
</g>
</svg>
