<?xml version="1.0" standalone="no"?>
<!DOCTYPE svg PUBLIC "-//W3C//DTD SVG 20010904//EN"
 "http://www.w3.org/TR/2001/REC-SVG-20010904/DTD/svg10.dtd">
<svg version="1.0" xmlns="http://www.w3.org/2000/svg"
 viewBox="0 0 2600.000000 2600.000000"
 preserveAspectRatio="xMidYMid meet">
<metadata>
Created by potrace 1.15, written by Peter Selinger 2001-2017
</metadata>
<g transform="translate(0.000000,2600.000000) scale(0.100000,-0.100000)"
fill="#000000" stroke="none">
<path d="M14905 21270 c-230 -46 -421 -144 -589 -301 -399 -373 -492 -985
-220 -1449 l36 -61 -61 -122 c-102 -205 -138 -369 -128 -591 23 -546 411 -996
959 -1112 100 -21 332 -24 428 -5 276 54 524 200 703 415 l49 59 141 2 c117 2
159 7 239 28 232 62 387 148 548 307 243 239 360 514 360 847 0 146 -9 214
-46 340 -86 299 -307 568 -585 713 -100 52 -266 107 -365 121 -43 6 -88 13
-100 15 -16 3 -30 26 -57 91 -126 304 -399 557 -713 662 -186 62 -416 78 -599
41z m346 -594 c96 -21 194 -72 268 -141 113 -105 169 -215 191 -374 22 -160
99 -253 239 -291 34 -9 71 -9 160 0 100 11 126 10 191 -4 283 -60 485 -321
467 -606 -7 -111 -36 -200 -95 -292 -98 -149 -254 -241 -445 -263 -41 -5 -90
0 -173 16 -101 20 -123 21 -172 11 -106 -22 -164 -73 -242 -213 -69 -123 -179
-217 -315 -269 -81 -31 -244 -39 -332 -16 -278 71 -471 333 -449 611 12 146
65 257 185 390 75 82 95 138 89 239 -6 89 -26 129 -112 225 -77 86 -130 186
-151 286 -18 88 -18 142 0 230 67 320 381 528 696 461z"/>
<path d="M5915 18519 c-292 -38 -582 -198 -765 -424 l-52 -63 -92 5 c-60 3
-125 -1 -191 -11 -510 -84 -903 -473 -992 -981 -23 -132 -14 -358 20 -485 118
-452 483 -795 932 -875 169 -30 153 -21 186 -103 99 -249 305 -474 547 -600
170 -89 299 -122 502 -129 176 -6 271 7 424 58 339 113 617 386 740 727 68
190 85 429 45 625 -23 117 -83 275 -135 361 l-35 59 54 106 c98 190 137 346
137 551 0 544 -367 1014 -897 1149 -146 38 -289 47 -428 30z m273 -614 c273
-65 469 -330 449 -609 -10 -139 -61 -253 -166 -369 -80 -89 -103 -135 -109
-222 -6 -99 19 -160 107 -258 147 -165 197 -336 156 -532 -46 -220 -230 -404
-450 -450 -192 -40 -372 10 -516 143 -108 100 -166 215 -188 372 -13 97 -32
140 -83 197 -81 87 -152 107 -319 91 -108 -11 -123 -10 -204 10 -113 28 -204
79 -285 161 -260 264 -211 699 104 902 142 93 285 113 485 69 99 -22 211 7
279 73 19 18 55 70 80 117 84 152 228 268 378 304 78 19 204 19 282 1z"/>
<path d="M10755 17553 c-77 -9 -236 -47 -314 -75 -313 -110 -570 -315 -755
-601 -136 -208 -215 -456 -231 -722 -20 -319 92 -686 288 -943 l40 -53 -51
-102 c-52 -105 -88 -197 -117 -302 l-16 -60 -117 -1 c-453 -3 -910 -262 -1171
-664 -85 -130 -168 -333 -202 -491 l-11 -55 -69 -12 c-97 -17 -249 -67 -355
-118 -148 -70 -267 -156 -395 -283 -173 -174 -286 -357 -357 -581 -53 -167
-66 -250 -67 -421 l0 -156 -47 -26 c-79 -44 -138 -150 -138 -246 0 -20 470
-1935 1045 -4255 1151 -4646 1054 -4280 1152 -4348 50 -34 353 -137 658 -223
647 -184 1248 -291 1975 -352 295 -25 1146 -25 1445 0 872 73 1593 218 2382
478 245 81 292 109 337 201 17 35 375 1465 1066 4253 955 3851 1041 4205 1037
4265 -6 102 -59 190 -138 231 l-37 18 0 133 c0 373 -142 729 -396 995 -219
230 -446 359 -747 427 l-103 23 -22 89 c-105 422 -369 762 -739 950 -60 31
-111 57 -113 59 -1 1 9 47 22 101 142 567 -75 1166 -552 1524 -114 86 -279
173 -406 215 -153 51 -242 66 -421 72 -195 6 -277 -5 -465 -63 l-114 -36 -30
39 c-64 84 -254 261 -345 321 -169 113 -365 193 -564 229 -111 20 -356 22
-439 4 l-57 -12 -133 133 c-190 191 -346 292 -579 373 -148 51 -300 75 -467
74 -76 -1 -150 -4 -167 -6z m393 -622 c218 -57 418 -210 541 -414 73 -122 138
-167 259 -182 36 -5 71 1 152 25 135 41 303 51 429 26 261 -53 486 -227 610
-474 67 -133 160 -196 286 -196 68 0 77 3 216 72 183 91 242 106 424 106 112
0 156 -5 218 -22 243 -67 453 -241 562 -466 60 -125 76 -189 82 -343 5 -114 2
-146 -16 -227 -20 -87 -34 -119 -140 -321 -21 -41 -26 -63 -26 -125 0 -88 22
-145 80 -208 48 -54 98 -77 223 -102 131 -26 217 -59 311 -117 195 -122 340
-328 385 -549 7 -38 17 -114 20 -169 4 -55 14 -121 22 -147 20 -63 83 -131
151 -164 49 -24 72 -28 197 -35 215 -12 347 -55 502 -165 75 -53 177 -162 222
-237 100 -166 150 -373 126 -519 l-7 -38 -4753 0 -4753 0 -12 42 c-23 88 16
299 81 432 142 289 417 469 740 482 166 7 229 25 294 85 76 69 96 121 106 278
19 276 126 491 322 646 221 174 487 228 785 159 117 -27 227 7 302 92 53 61
71 117 81 259 16 229 71 365 227 554 60 74 83 131 83 212 0 98 -27 152 -126
249 -141 139 -220 266 -266 427 -19 65 -23 102 -23 228 0 127 4 162 23 230 97
336 374 581 717 635 85 13 257 3 343 -19z m-2434 -5608 c12 -43 1089 -7943
1084 -7948 -7 -7 -83 14 -328 92 l-176 55 -964 3892 c-530 2140 -965 3899
-968 3909 -4 16 33 17 671 17 635 0 676 -1 681 -17z m2906 -4118 l0 -4135 -27
0 c-80 1 -538 51 -553 60 -7 5 -1120 8154 -1120 8205 0 3 383 5 850 5 l850 0
0 -4135z m2897 4088 c-29 -238 -1099 -8124 -1105 -8143 -7 -23 -14 -25 -112
-37 -138 -16 -421 -43 -454 -43 l-26 0 0 4135 0 4135 851 0 852 0 -6 -47z
m2563 37 c0 -7 -1793 -7255 -1910 -7722 l-22 -87 -142 -45 c-208 -66 -357
-108 -363 -102 -4 4 1065 7829 1083 7934 l6 32 674 0 c421 0 674 -4 674 -10z"/>
<path d="M18610 17233 c-147 -22 -352 -89 -458 -149 -240 -138 -436 -358 -533
-599 -93 -233 -108 -455 -48 -691 l21 -85 -89 -92 c-141 -146 -233 -303 -287
-489 -153 -527 116 -1090 624 -1309 177 -77 334 -105 534 -96 322 14 606 142
826 373 41 43 86 94 100 111 l25 33 103 -12 c87 -10 124 -10 230 4 618 79
1074 577 1073 1173 0 407 -211 762 -571 958 -67 36 -203 89 -277 107 -36 9
-43 16 -54 48 -6 20 -28 69 -47 107 -157 315 -470 541 -832 600 -86 13 -275
18 -340 8z m311 -619 c197 -58 333 -207 366 -402 17 -105 41 -158 94 -210 59
-60 114 -81 235 -93 165 -15 275 -62 369 -157 204 -203 189 -529 -33 -748 -75
-74 -210 -146 -310 -165 -95 -18 -251 -7 -341 25 -90 32 -161 33 -235 6 -75
-29 -126 -82 -182 -192 -84 -163 -226 -282 -399 -334 -89 -27 -249 -25 -340 3
-165 52 -292 174 -345 333 -29 85 -25 234 8 325 48 131 150 245 296 330 117
68 168 152 169 277 1 62 -3 75 -55 180 -68 135 -78 170 -78 269 0 178 101 358
259 463 78 52 179 93 260 106 73 11 194 4 262 -16z"/>
</g>
</svg>
