<?xml version='1.0' encoding='iso-8859-1'?>
<svg version="1.1" xmlns="http://www.w3.org/2000/svg" viewBox="0 0 376.213 376.213" xmlns:xlink="http://www.w3.org/1999/xlink" enable-background="new 0 0 376.213 376.213">
  <g>
    <g>
      <path d="m367.663,67.993h-121.004c4.173,0 8.14-5.831 11.474-8.773 11.543-10.158 15.527-24.129 10.654-37.074-6.994-18.588-30.354-27.548-48.908-17.356-16.827,9.269-25.805,25.514-31.773,42.478-5.968-16.964-14.946-33.278-31.756-42.563-18.537-10.209-41.896-1.334-48.908,17.272-4.891,12.928-0.906,27.104 10.637,37.245 3.352,2.941 7.302,8.773 11.474,8.773h-121.003c-4.72,0-8.55,3.01-8.55,7.747v68.402c0,4.72 3.831,9.354 8.55,9.354h8.55v212.952c0,4.72 3.831,9.354 8.55,9.354h153.905 17.101 153.905c4.72,0 8.55-4.634 8.55-9.354v-212.954h8.55c4.72,0 8.55-4.634 8.55-9.354v-68.402c0.002-4.737-3.829-7.747-8.548-7.747zm-139.575-48.018c2.958-1.642 6.019-2.668 9.029-2.668 6.874,0 13.338,4.361 15.75,10.739 2.36,6.225 0.239,13.014-5.968,18.452-9.354,8.225-23.77,21.495-40.734,21.495h-6.43c5.181-17.1 12.158-39.091 28.353-48.018zm-98.773,26.472c-6.208-5.438-8.328-12.073-5.985-18.298 2.411-6.379 8.892-10.944 15.75-10.944 3.027,0 6.071,1.197 9.046,2.822 16.194,8.927 23.171,30.867 28.353,47.967h-6.413c-16.999-0.001-31.414-13.322-40.751-21.547zm-112.214,38.647h150.229c1.18,0 2.48-0.171 3.677,0.171v51.131h-145.356-8.55v-51.302zm17.1,68.402h136.805v205.207h-136.805v-205.207zm307.811,205.207h-136.805v-205.207h136.805v205.207zm17.1-222.307h-8.55-145.355v-51.131c1.197-0.342 2.497-0.171 3.677-0.171h150.229v51.302z"/>
    </g>
  </g>
</svg>
