<?xml version="1.0" standalone="no"?>
<!DOCTYPE svg PUBLIC "-//W3C//DTD SVG 20010904//EN"
 "http://www.w3.org/TR/2001/REC-SVG-20010904/DTD/svg10.dtd">
<svg version="1.0" xmlns="http://www.w3.org/2000/svg"
 viewBox="0 0 2600.000000 2600.000000"
 preserveAspectRatio="xMidYMid meet">
<metadata>
Created by potrace 1.15, written by Peter Selinger 2001-2017
</metadata>
<g transform="translate(0.000000,2600.000000) scale(0.100000,-0.100000)"
fill="#000000" stroke="none">
<path d="M8735 23633 c-301 -18 -570 -143 -771 -355 -170 -180 -276 -408 -304
-654 -8 -72 -10 -2669 -8 -9619 3 -8956 5 -9524 21 -9588 56 -225 141 -389
282 -545 114 -127 303 -248 480 -306 180 -60 -187 -56 5015 -54 l4765 3 100
28 c138 38 321 130 421 211 212 171 339 375 411 663 16 64 18 632 21 9588 2
6950 0 9547 -8 9619 -28 246 -134 474 -304 654 -164 173 -359 281 -616 339
-70 16 -391 17 -4765 18 -2579 1 -4712 0 -4740 -2z m8465 -1607 c501 -120 844
-496 900 -986 14 -121 13 -13174 0 -13295 -21 -183 -89 -366 -190 -515 -166
-245 -445 -424 -739 -475 -127 -23 -7396 -22 -7523 0 -238 41 -450 156 -620
333 -94 98 -147 176 -209 306 -54 115 -83 219 -99 356 -8 67 -10 2019 -8 6710
l3 6615 22 88 c121 482 513 830 988 877 44 4 1727 7 3740 6 3489 -2 3664 -2
3735 -20z m-3675 -16356 c131 -15 226 -43 350 -105 279 -138 473 -376 557
-683 18 -64 21 -107 22 -252 1 -207 -16 -294 -89 -447 -138 -293 -382 -497
-694 -581 -85 -23 -115 -26 -261 -26 -146 0 -176 3 -262 27 -232 62 -437 199
-580 387 -66 86 -152 264 -179 370 -31 119 -37 332 -15 454 63 334 275 611
581 757 190 91 367 122 570 99z"/>
</g>
</svg>
