<?xml version="1.0" standalone="no"?>
<!DOCTYPE svg PUBLIC "-//W3C//DTD SVG 20010904//EN"
 "http://www.w3.org/TR/2001/REC-SVG-20010904/DTD/svg10.dtd">
<svg version="1.0" xmlns="http://www.w3.org/2000/svg"
 viewBox="0 0 2600.000000 2600.000000"
 preserveAspectRatio="xMidYMid meet">
<metadata>
Created by potrace 1.15, written by Peter Selinger 2001-2017
</metadata>
<g transform="translate(0.000000,2600.000000) scale(0.100000,-0.100000)"
fill="#000000" stroke="none">
<path d="M8381 19123 c-29 -104 -67 -225 -85 -269 -178 -436 -593 -726 -1071
-751 -149 -8 -253 8 -494 73 -112 30 -204 54 -205 52 -2 -2 -298 -1072 -660
-2378 -361 -1306 -659 -2383 -662 -2392 -3 -10 2 -18 13 -21 10 -3 95 -27 188
-53 271 -75 408 -142 568 -279 56 -48 76 -70 68 -78 -7 -7 -94 -12 -236 -15
l-225 -5 0 -2483 0 -2484 219 0 c235 0 332 -11 476 -55 364 -111 666 -408 790
-777 50 -151 65 -266 65 -510 l0 -208 6219 0 6218 0 6 242 c6 262 19 348 72
498 149 417 519 724 958 795 61 10 164 15 305 15 l212 0 0 2325 0 2324 190
687 c104 377 190 692 190 698 0 7 -78 34 -192 65 -105 29 -231 70 -279 90
-370 160 -637 495 -715 898 -21 105 -23 318 -5 413 6 36 35 150 63 253 28 106
47 192 42 196 -6 6 -11725 3256 -11964 3318 -13 4 -25 -29 -69 -184z m5879
-2112 l5375 -1489 -3 -118 c-20 -691 351 -1351 950 -1691 51 -29 98 -56 105
-60 8 -6 -9 -81 -63 -273 -41 -146 -79 -282 -84 -302 l-10 -36 -63 18 c-329
97 -595 310 -744 598 -118 227 -152 396 -153 755 l0 147 -6220 0 -6220 0 0
-212 c0 -241 -14 -351 -61 -493 -59 -175 -176 -360 -309 -490 l-62 -60 -41 50
c-168 201 -376 375 -575 480 -40 20 -72 43 -72 49 1 6 222 809 493 1783 l492
1773 210 3 c240 5 348 22 548 88 367 120 694 353 919 656 69 92 151 224 179
286 7 15 17 27 23 27 6 0 2430 -670 5386 -1489z m4686 -3138 c72 -319 177
-551 353 -781 265 -348 665 -605 1084 -697 l77 -17 0 -1852 0 -1851 -120 -29
c-443 -106 -853 -395 -1114 -786 -136 -204 -225 -421 -282 -687 l-4 -23 -5588
0 -5589 0 -17 83 c-81 383 -313 767 -619 1024 -235 196 -558 356 -819 404
l-68 12 0 1852 0 1853 98 22 c696 161 1256 724 1409 1418 l18 82 5587 0 5588
0 6 -27z"/>
<path d="M8210 12185 l0 -165 5140 0 5140 0 0 165 0 165 -5140 0 -5140 0 0
-165z"/>
<path d="M12295 11366 c-290 -61 -525 -246 -629 -494 -46 -110 -60 -185 -60
-342 -1 -106 4 -165 17 -219 77 -318 298 -537 624 -618 98 -24 332 -24 438 0
149 35 345 147 455 261 l34 36 -104 105 c-58 58 -107 105 -111 105 -3 0 -34
-25 -70 -56 -136 -119 -253 -165 -414 -166 -169 -2 -289 46 -401 156 -109 110
-155 226 -155 396 1 164 45 274 156 386 218 219 549 216 815 -8 l71 -59 47 40
c26 22 75 68 110 104 l63 64 -69 65 c-88 83 -143 120 -245 168 -137 64 -213
82 -372 85 -88 3 -162 -1 -200 -9z"/>
<path d="M9940 11185 l0 -155 145 0 145 0 0 -660 0 -660 155 0 155 0 0 660 0
660 150 0 150 0 0 155 0 155 -450 0 -450 0 0 -155z"/>
<path d="M11030 10525 l0 -815 155 0 155 0 0 815 0 815 -155 0 -155 0 0 -815z"/>
<path d="M13450 10525 l0 -815 155 0 155 0 0 358 c1 347 1 356 19 335 10 -12
123 -173 251 -357 l233 -336 183 0 c101 0 184 2 184 5 0 3 -137 203 -305 445
-168 242 -306 444 -308 449 -1 5 123 169 276 364 152 196 277 358 277 362 0 3
-84 4 -187 3 l-187 -3 -216 -274 -215 -274 -3 277 -2 276 -155 0 -155 0 0
-815z"/>
<path d="M14850 10525 l0 -815 445 0 445 0 0 155 0 155 -290 0 -290 0 0 210 0
210 290 0 290 0 0 155 0 155 -290 0 -290 0 0 140 0 140 290 0 290 0 0 155 0
155 -445 0 -445 0 0 -815z"/>
<path d="M15860 11185 l0 -155 145 0 145 0 0 -660 0 -660 160 0 160 0 0 660 0
660 150 0 150 0 0 155 0 155 -455 0 -455 0 0 -155z"/>
<path d="M8214 9027 c-2 -7 -3 -82 -2 -167 l3 -155 5138 -3 5137 -2 0 170 0
170 -5135 0 c-4188 0 -5137 -2 -5141 -13z"/>
</g>
</svg>
